<?xml version="1.0" standalone="no"?>
<!DOCTYPE svg PUBLIC "-//W3C//DTD SVG 20010904//EN"
 "http://www.w3.org/TR/2001/REC-SVG-20010904/DTD/svg10.dtd">
<svg version="1.0" xmlns="http://www.w3.org/2000/svg"
 width="1364.000000pt" height="1568.000000pt" viewBox="0 0 1364.000000 1568.000000"
 preserveAspectRatio="xMidYMid meet">
<metadata>
Created by potrace 1.16, written by Peter Selinger 2001-2019
</metadata>
<g transform="translate(0.000000,1568.000000) scale(0.100000,-0.100000)"
fill="#000000" stroke="none">
<path d="M5713 14282 c-24 -2 -33 -8 -33 -21 0 -15 -8 -17 -60 -13 -112 8
-214 -31 -232 -89 -7 -26 -17 -39 -29 -39 -10 0 -21 -4 -24 -10 -3 -5 -25 -10
-47 -10 -67 0 -226 -92 -230 -133 -2 -17 -11 -35 -23 -41 -101 -56 -195 -139
-195 -171 0 -13 -22 -21 -34 -12 -1 1 -22 -15 -45 -35 -22 -21 -50 -38 -61
-38 -11 0 -20 -7 -20 -15 0 -8 -9 -15 -19 -15 -13 0 -21 -9 -26 -30 -5 -22
-19 -37 -60 -60 -50 -29 -65 -49 -65 -92 0 -9 -29 -59 -63 -111 -35 -52 -70
-116 -77 -141 -9 -34 -18 -46 -31 -46 -12 0 -19 -7 -19 -20 0 -13 -7 -20 -19
-20 -11 0 -22 -4 -26 -10 -4 -6 -15 -6 -30 0 -21 8 -25 7 -25 -10 0 -19 -8
-23 -67 -35 -24 -5 -33 -12 -33 -26 0 -17 -8 -19 -89 -19 -78 0 -92 -3 -126
-26 -35 -23 -56 -27 -199 -40 -302 -26 -426 -54 -426 -95 0 -14 -7 -19 -30
-19 -22 0 -30 -5 -30 -18 0 -13 -24 -30 -80 -57 -75 -36 -80 -41 -80 -70 0
-24 -6 -35 -26 -43 -14 -7 -23 -8 -19 -2 4 6 -13 10 -43 10 l-49 0 -21 -50
c-19 -46 -19 -50 -4 -59 13 -7 9 -11 -21 -16 -30 -6 -37 -12 -37 -30 0 -17 -7
-25 -22 -27 -14 -2 -24 -11 -26 -24 -2 -12 -20 -35 -42 -52 -44 -36 -118 -145
-146 -214 -17 -43 -22 -48 -51 -48 -32 0 -33 -2 -33 -40 0 -33 -3 -40 -19 -40
-20 0 -23 -8 -36 -98 -4 -23 -13 -56 -21 -72 -13 -24 -18 -105 -13 -175 3 -34
-31 -169 -44 -177 -17 -11 -22 -432 -7 -683 22 -377 20 -355 41 -355 16 0 19
-8 19 -49 0 -28 4 -52 9 -55 5 -3 14 -35 20 -71 20 -111 59 -205 86 -205 20 0
24 -6 30 -52 9 -77 14 -88 36 -88 17 0 19 -7 19 -57 0 -71 23 -113 79 -145 32
-18 41 -29 41 -50 0 -21 5 -28 20 -28 16 0 20 -7 20 -36 0 -19 8 -56 19 -82
10 -26 28 -103 40 -172 12 -68 27 -127 32 -131 6 -3 -3 -9 -20 -12 -22 -5 -31
-12 -31 -27 0 -13 -7 -20 -20 -20 -13 0 -20 -7 -20 -20 0 -13 -7 -20 -20 -20
-13 0 -20 -7 -20 -20 0 -16 -7 -20 -30 -20 -23 0 -30 -4 -30 -20 0 -14 -7 -20
-23 -20 -13 0 -34 -11 -47 -25 -19 -20 -33 -25 -70 -25 -68 0 -140 -56 -140
-109 0 -20 -9 -49 -21 -66 -11 -16 -24 -40 -29 -52 -5 -13 -17 -23 -25 -23
-24 0 -121 -75 -141 -109 -9 -16 -23 -27 -29 -24 -15 5 -156 -132 -172 -167
-6 -14 -14 -33 -17 -42 -3 -10 -15 -18 -26 -18 -16 0 -20 -7 -20 -31 0 -24 -6
-32 -30 -40 -28 -10 -30 -15 -30 -60 0 -42 -3 -49 -20 -49 -16 0 -19 -5 -14
-28 5 -27 -88 -224 -123 -260 -6 -7 -15 -39 -19 -72 -5 -48 -10 -60 -24 -60
-14 0 -18 -14 -24 -91 -4 -50 -9 -104 -13 -120 -6 -32 -22 -40 -24 -11 -2 36
-28 -70 -39 -162 -21 -167 -9 -373 28 -481 17 -49 34 -119 37 -155 10 -96 30
-177 63 -250 16 -36 39 -96 51 -135 39 -120 91 -215 118 -215 17 0 23 -6 23
-23 0 -35 90 -157 115 -157 16 0 24 -10 32 -43 16 -60 46 -93 114 -128 42 -21
59 -35 59 -49 0 -13 7 -20 20 -20 13 0 20 -7 20 -20 0 -12 16 -30 42 -46 24
-15 71 -53 106 -85 50 -46 82 -65 158 -94 l94 -37 0 -88 c0 -80 2 -89 20 -95
18 -6 20 -15 20 -93 0 -159 31 -362 55 -362 9 0 15 -27 20 -100 6 -91 9 -100
27 -100 18 0 19 -5 13 -49 l-7 -50 41 -20 c22 -12 47 -21 56 -21 8 0 15 -5 15
-11 0 -5 -4 -7 -10 -4 -6 4 -10 -25 -10 -79 l0 -84 30 -7 c18 -4 37 -18 47
-33 98 -164 189 -278 233 -293 16 -6 33 -22 40 -40 14 -32 58 -74 90 -84 12
-4 20 -15 20 -29 0 -16 10 -27 36 -39 20 -10 61 -41 91 -70 30 -28 57 -51 59
-49 11 7 27 -2 83 -47 34 -28 78 -55 97 -61 23 -8 34 -18 34 -30 0 -15 13 -23
58 -35 31 -9 113 -34 182 -56 189 -59 222 -61 690 -54 361 6 671 -3 687 -18 2
-2 5 -37 8 -78 3 -41 8 -98 11 -126 l6 -53 -30 0 c-26 0 -31 -4 -37 -33 -12
-59 -16 -67 -35 -67 -20 0 -46 -69 -36 -95 3 -9 -4 -15 -17 -17 -14 -2 -23
-11 -25 -25 -2 -15 -10 -23 -22 -23 -19 0 -23 -8 -35 -68 -5 -23 -12 -32 -26
-32 -12 0 -19 -7 -19 -20 0 -13 -7 -20 -20 -20 -15 0 -20 -7 -20 -29 0 -25 -5
-30 -26 -33 -15 -2 -32 -11 -38 -22 -6 -10 -37 -43 -69 -74 -32 -30 -60 -67
-64 -81 -9 -37 -42 -79 -67 -85 -12 -3 -30 -21 -39 -41 -12 -25 -23 -35 -40
-35 -29 0 -101 -73 -136 -137 -21 -39 -33 -49 -63 -56 -28 -7 -38 -14 -38 -28
0 -15 -7 -19 -36 -19 -30 0 -44 -8 -78 -42 -22 -24 -65 -55 -93 -70 -45 -24
-53 -32 -53 -57 0 -29 -1 -29 -57 -29 -41 0 -81 -9 -136 -31 -43 -17 -108 -36
-145 -41 -86 -12 -126 -26 -182 -63 -28 -18 -65 -32 -99 -37 -30 -4 -57 -12
-59 -19 -5 -15 -362 -16 -362 -1 0 7 -49 8 -142 5 -278 -11 -328 -14 -345 -24
-10 -6 -13 -11 -8 -11 6 0 -26 -18 -70 -39 -97 -48 -156 -97 -201 -167 -19
-29 -48 -62 -65 -74 l-31 -23 4 -211 c4 -221 8 -246 39 -246 14 0 19 -7 19
-28 0 -52 61 -102 167 -136 39 -13 53 -23 55 -39 5 -33 204 -94 367 -112 69
-7 146 -19 171 -25 32 -8 147 -11 391 -8 339 4 346 4 373 26 24 18 41 22 102
22 66 0 74 2 74 19 0 16 10 19 88 23 119 6 345 81 350 116 3 17 10 22 35 22
18 0 40 9 54 22 14 13 66 39 116 59 65 26 93 42 95 55 4 20 64 64 88 64 8 0
14 9 14 19 0 20 18 31 53 31 33 0 85 36 108 75 16 27 30 36 62 42 32 7 47 17
67 45 36 53 77 83 94 69 19 -16 112 53 157 117 20 28 63 71 96 95 32 24 82 75
110 113 28 38 81 95 117 127 49 43 67 66 72 92 5 27 11 35 28 35 20 0 109 114
112 144 0 6 2 17 2 24 1 6 11 12 22 12 16 0 20 7 20 30 0 22 5 30 18 30 10 0
30 17 43 38 14 20 74 107 133 192 122 175 140 208 144 268 2 16 8 22 26 22 24
0 79 100 93 171 3 18 12 29 26 31 17 2 23 13 29 46 4 24 18 56 31 71 23 28 28
38 61 133 10 25 28 53 40 62 14 9 26 29 30 50 5 27 12 36 26 36 16 0 20 7 20
30 l0 30 90 0 c81 0 90 -2 90 -18 0 -13 12 -22 40 -31 30 -9 43 -20 56 -47 16
-34 58 -64 89 -64 8 0 15 -9 15 -20 0 -16 7 -20 30 -20 23 0 30 -4 30 -20 0
-13 10 -24 25 -30 14 -5 47 -27 74 -49 28 -21 89 -57 136 -80 65 -31 85 -45
85 -61 0 -17 6 -20 40 -20 33 0 40 -3 40 -20 0 -14 11 -22 40 -30 27 -7 45
-19 52 -35 15 -34 78 -56 159 -56 l69 0 0 -30 c0 -32 -5 -30 115 -48 39 -6
108 -20 155 -31 94 -22 494 -29 615 -11 192 29 315 55 360 77 86 42 180 103
189 124 6 13 19 20 38 20 20 0 28 5 28 18 0 19 39 45 82 56 15 3 33 12 41 20
8 8 36 33 63 56 113 97 192 181 198 212 4 18 23 46 45 67 22 20 43 49 46 63 4
17 15 28 28 30 16 2 23 14 32 60 10 53 32 95 43 83 8 -8 50 53 88 127 18 37
56 89 84 117 27 27 50 55 50 61 0 5 18 10 40 10 37 0 40 2 40 28 l0 29 115 12
c64 7 146 21 183 31 41 11 99 18 152 18 159 -1 420 85 428 141 3 16 10 21 33
21 22 0 29 5 29 20 0 17 7 20 40 20 33 0 40 3 40 20 0 16 7 20 34 20 41 0 126
64 126 95 0 23 140 101 164 92 27 -11 86 80 86 132 0 13 14 28 40 43 35 20 40
26 34 50 -5 24 -3 28 18 28 26 0 40 28 54 103 4 27 11 37 25 37 14 0 19 7 19
29 0 23 5 30 22 33 22 3 106 176 108 219 0 9 8 19 18 21 24 7 48 92 62 223 6
57 18 113 28 130 15 27 17 76 20 441 3 458 -4 588 -35 613 -12 10 -38 72 -66
156 -62 190 -73 215 -97 215 -17 0 -20 7 -20 40 0 32 -4 40 -18 40 -14 0 -23
15 -36 63 -30 110 -156 357 -182 357 -12 0 -25 8 -29 18 -12 31 -18 148 -10
217 6 64 9 70 56 115 27 26 49 53 49 59 0 6 11 17 25 23 14 6 25 19 25 30 0
11 7 18 20 18 13 0 20 7 20 19 0 14 10 21 38 28 25 6 38 15 40 28 1 11 19 30
40 43 20 13 52 34 71 48 22 15 41 22 54 18 25 -8 97 61 97 93 0 16 6 23 20 23
12 0 26 12 36 33 22 43 94 117 108 111 31 -12 238 287 252 363 4 24 12 33 25
33 16 0 19 8 19 48 0 45 2 49 33 63 24 11 34 23 41 52 7 26 15 37 28 37 23 0
35 29 58 141 10 47 29 119 43 160 13 41 28 89 32 106 3 18 11 33 16 33 5 0 9
45 9 100 0 95 1 100 21 100 20 0 21 3 15 73 -4 40 -9 203 -10 363 -3 271 -5
292 -24 331 -12 22 -30 82 -41 132 -22 100 -42 150 -72 177 -18 16 -19 16 -20
-2 -1 -10 -11 13 -23 51 -17 53 -27 71 -42 73 -15 2 -25 18 -38 57 -28 91
-165 245 -216 245 -6 0 -10 9 -10 20 0 12 -7 20 -17 20 -23 0 -103 79 -103
102 0 11 -7 18 -19 18 -13 0 -23 11 -31 34 -8 24 -21 38 -50 51 -24 11 -40 25
-42 38 -2 15 -14 24 -40 30 -33 8 -38 13 -38 37 0 30 -4 32 -67 45 -23 5 -33
12 -33 25 0 13 -25 34 -80 67 -69 41 -79 51 -75 71 5 20 2 22 -38 22 l-43 0
-23 63 c-18 52 -37 197 -41 310 0 4 -9 7 -20 7 -19 0 -20 7 -20 123 0 105 -3
129 -21 162 -11 22 -43 98 -70 169 -27 71 -55 139 -63 151 -8 12 -18 38 -21
59 -5 26 -12 36 -26 36 -15 0 -19 7 -19 40 0 36 -2 40 -25 40 -14 0 -25 5 -25
10 0 6 -11 10 -23 10 -19 0 -26 8 -36 38 -13 42 -36 71 -103 125 -25 21 -51
51 -57 68 -7 19 -17 29 -30 29 -14 0 -21 7 -21 19 0 13 -11 23 -35 31 -20 7
-62 36 -94 66 -53 49 -147 104 -178 104 -7 0 -13 9 -13 20 0 16 -7 20 -30 20
-23 0 -30 4 -30 20 0 23 1 23 -102 45 -65 14 -77 19 -80 38 -5 33 -100 67
-196 71 -74 3 -167 32 -182 57 -34 54 -771 68 -941 17 -27 -8 -39 -17 -39 -30
0 -14 -8 -18 -40 -18 -28 0 -40 -4 -40 -14 0 -20 -53 -31 -132 -27 l-67 3 -17
-35 c-14 -28 -24 -37 -48 -39 -22 -2 -32 -9 -34 -23 -4 -24 -188 -129 -244
-139 -27 -5 -38 -12 -38 -24 0 -18 -94 -72 -125 -72 -7 0 -33 -22 -55 -49 -51
-60 -103 -81 -205 -81 l-72 0 -18 40 c-13 29 -27 42 -51 50 -23 8 -34 18 -34
31 0 12 -7 19 -20 19 -13 0 -20 7 -20 20 0 13 -7 20 -20 20 -13 0 -20 7 -20
20 0 10 -9 24 -19 29 -10 6 -23 28 -28 48 -6 29 -16 41 -41 52 -21 10 -32 22
-32 36 0 28 -89 115 -118 115 -13 0 -22 6 -22 15 0 9 -14 30 -30 48 -17 18
-45 52 -63 77 -18 25 -49 54 -70 65 -29 16 -37 26 -37 47 0 22 -7 31 -33 42
-18 7 -41 25 -50 40 -10 14 -26 26 -37 26 -12 0 -20 8 -22 22 -2 19 -12 25
-50 32 -37 6 -48 12 -48 27 0 14 -7 19 -29 19 -23 0 -30 5 -33 22 -2 18 -16
26 -70 42 -38 10 -68 24 -68 30 0 33 -26 66 -52 66 -21 0 -28 6 -33 31 -10 46
-56 69 -135 69 -63 -1 -64 -1 -40 -16 14 -8 17 -13 7 -10 -10 3 -25 6 -32 6
-8 0 -15 10 -17 22 -2 18 -13 24 -58 34 -30 6 -89 21 -130 32 -41 11 -87 23
-102 26 -19 4 -28 13 -28 26 0 19 -7 20 -99 20 -55 0 -101 -4 -103 -9 -2 -6
-56 -6 -143 0 -160 11 -335 16 -382 11z m507 -1063 c0 -13 12 -21 43 -29 124
-31 212 -65 297 -115 52 -30 101 -55 108 -55 6 0 12 -9 12 -19 0 -11 27 -43
64 -75 35 -31 67 -68 70 -81 4 -15 14 -25 25 -25 13 0 25 -16 39 -50 15 -36
26 -50 41 -50 23 0 27 -12 36 -97 7 -61 7 -61 45 -71 l38 -9 -19 55 c-24 70
-18 78 10 12 25 -59 39 -124 21 -100 -31 42 6 -197 57 -360 37 -121 29 -1148
-12 -1413 -15 -97 -37 -265 -55 -432 -6 -55 -25 -152 -42 -215 -28 -104 -31
-132 -34 -290 -2 -96 -8 -188 -13 -205 -9 -25 -9 -22 -5 20 3 28 8 58 11 68 3
12 -1 17 -16 17 -15 0 -23 -10 -31 -41 -28 -102 -42 -273 -20 -239 15 23 13
-1 -9 -100 -26 -116 -55 -180 -81 -180 -13 0 -20 -7 -20 -19 0 -18 -7 -19
-122 -15 -208 7 -231 10 -272 35 -37 22 -55 24 -260 31 -122 5 -231 6 -244 3
-22 -5 -215 26 -197 32 6 1 47 -3 93 -10 l82 -14 0 27 c0 26 -1 27 -150 54
-83 15 -195 30 -250 33 -88 5 -100 8 -100 25 0 14 -8 18 -34 18 -19 0 -81 11
-138 24 -56 13 -125 27 -153 31 -98 13 -145 26 -145 40 0 23 -31 33 -123 41
-76 6 -87 9 -87 25 0 16 -8 19 -50 19 -43 0 -50 3 -50 20 0 17 -7 20 -49 20
-61 0 -112 18 -220 77 -55 30 -80 49 -68 51 26 5 21 17 -17 35 -19 9 -37 25
-40 35 -5 14 -20 22 -54 29 -38 6 -48 12 -50 31 -3 17 -10 22 -33 22 -23 0
-29 4 -29 21 0 19 -5 21 -37 17 -38 -5 -83 8 -83 23 0 5 8 6 18 3 25 -8 -85
92 -134 121 -22 14 -52 26 -66 27 -19 2 -24 7 -20 24 3 17 -3 26 -27 38 -26
14 -31 23 -31 51 0 29 -4 36 -27 41 -65 16 -82 32 -100 94 -15 55 -19 60 -44
60 -23 0 -28 5 -34 33 -13 63 -15 67 -46 67 -26 0 -32 7 -64 70 -42 83 -43 91
-10 60 l25 -23 0 46 c0 40 -3 47 -20 47 -20 0 -20 7 -20 380 0 365 1 380 19
380 16 0 20 11 26 68 4 37 15 85 25 107 16 36 37 103 45 147 9 47 68 105 116
115 19 3 29 12 31 27 3 23 46 40 131 51 37 5 47 10 47 25 0 37 42 40 641 40
l579 0 0 60 c0 53 2 60 20 60 18 0 20 7 20 59 0 33 4 62 9 65 5 3 17 41 26 83
20 89 43 153 56 153 4 0 13 18 19 40 8 29 16 40 30 40 13 0 22 9 26 28 18 81
28 107 55 150 16 26 32 64 36 84 4 28 10 38 24 38 14 0 19 7 19 28 0 36 29 64
108 102 34 16 62 33 62 38 0 17 98 105 133 119 21 9 42 24 48 34 6 12 21 19
39 19 23 0 30 5 30 20 0 19 8 20 223 22 262 3 277 2 277 -23z m3875 -757 c47
-13 61 -22 63 -38 2 -17 14 -25 50 -34 83 -21 183 -80 198 -117 8 -18 22 -37
32 -42 11 -6 42 -48 69 -95 28 -47 47 -83 42 -80 -14 8 -12 -7 23 -186 l33
-165 -3 -448 c-4 -525 -5 -517 69 -517 42 0 49 -3 49 -20 0 -11 2 -20 4 -20
114 0 536 -142 536 -179 0 -12 15 -21 50 -30 27 -7 81 -35 120 -63 39 -27 84
-54 99 -59 27 -9 193 -179 218 -223 7 -12 12 -35 13 -53 0 -24 5 -32 21 -35
17 -2 60 -68 44 -68 -1 0 -12 15 -24 33 l-21 32 0 -65 c0 -44 7 -83 22 -120
19 -47 22 -73 21 -188 -1 -113 1 -131 13 -121 18 15 18 3 -2 -54 -11 -34 -21
-47 -35 -47 -17 0 -19 -8 -19 -58 0 -61 -25 -152 -41 -152 -16 0 -68 -120 -85
-197 -13 -59 -20 -73 -35 -73 -12 0 -19 -7 -19 -20 0 -13 -7 -20 -19 -20 -12
0 -29 -16 -44 -42 -34 -58 -94 -118 -117 -118 -15 0 -20 -7 -20 -29 0 -25 -5
-30 -32 -36 -59 -12 -67 -16 -70 -37 -4 -29 -204 -130 -270 -136 -38 -4 -48
-8 -48 -22 0 -15 -12 -19 -67 -24 -38 -4 -81 -13 -96 -21 -19 -10 -59 -15
-123 -15 -89 0 -94 1 -94 21 0 17 -4 20 -22 14 -13 -3 -194 -9 -403 -13 -272
-4 -365 -8 -327 -15 28 -5 52 -13 52 -18 0 -8 -93 -6 -260 6 -30 2 -92 4 -137
4 -74 1 -83 3 -83 20 0 17 -14 19 -197 24 -183 6 -283 18 -368 46 -31 10 47 6
103 -5 17 -3 22 0 22 16 0 18 -6 20 -70 20 -63 0 -70 2 -70 20 0 18 -7 20 -89
20 -67 0 -92 4 -101 15 -26 32 -261 68 -515 80 -99 4 -195 37 -195 66 0 15 -7
19 -38 19 -77 0 -106 58 -98 194 6 101 24 344 30 424 4 46 -10 58 -17 15 -2
-16 -3 -9 -1 15 2 23 13 61 25 85 11 24 25 82 32 135 10 88 26 123 28 65 l1
-28 8 30 c4 17 8 100 9 186 1 190 8 250 27 242 20 -7 44 55 51 133 5 54 9 64
24 64 17 0 19 9 19 88 0 92 7 135 20 127 12 -7 57 113 65 170 11 83 27 160 34
165 4 3 20 51 36 108 23 82 32 102 47 102 15 0 18 9 18 59 0 54 2 60 22 63 23
3 61 84 74 157 14 84 48 178 74 206 15 17 33 40 39 52 6 12 21 23 33 25 19 2
25 15 41 81 15 58 23 77 36 77 12 0 21 15 30 50 22 85 149 230 201 230 27 0
30 3 30 30 0 23 4 30 20 30 13 0 20 7 20 19 0 15 11 21 48 27 43 8 47 12 50
39 3 29 4 30 51 27 58 -4 111 19 111 48 0 13 9 22 28 26 15 4 32 10 37 14 6 4
25 11 43 15 22 4 32 12 32 25 0 20 28 31 124 50 84 16 625 10 691 -8z m-5586
-3973 c20 -7 31 -18 31 -30 0 -15 7 -19 38 -19 20 0 136 -5 256 -10 165 -8
221 -8 227 1 5 9 22 9 65 2 l59 -10 -47 -2 c-55 -1 -58 -8 -22 -42 24 -23 33
-24 197 -30 135 -5 206 -13 332 -38 217 -43 235 -48 235 -70 0 -16 14 -20 102
-30 56 -6 107 -16 113 -21 7 -6 64 -17 126 -26 151 -20 220 -40 263 -76 l36
-29 0 -226 c0 -200 -2 -227 -17 -238 -13 -10 -18 -33 -21 -104 -2 -50 -8 -91
-13 -91 -5 0 -9 -18 -9 -40 0 -33 -3 -40 -20 -40 -31 0 -60 -110 -66 -250 -3
-63 -11 -133 -19 -155 -8 -23 -16 -113 -20 -215 -6 -191 -11 -221 -29 -214 -8
3 -17 -18 -25 -63 -8 -37 -22 -88 -33 -113 -16 -34 -21 -69 -22 -160 -3 -133
-31 -230 -67 -230 -16 0 -19 -7 -19 -54 0 -42 -7 -68 -34 -118 -18 -35 -57
-128 -86 -208 -55 -151 -94 -241 -86 -202 3 15 -2 26 -15 32 -16 9 -19 7 -19
-10 0 -13 -7 -20 -19 -20 -14 0 -21 -9 -26 -32 -12 -59 -16 -67 -38 -70 -27
-4 -64 -59 -79 -115 -7 -29 -16 -43 -27 -43 -13 0 -13 -2 -3 -9 19 -12 10 -46
-12 -45 -9 1 -15 0 -12 -3 3 -3 -8 -24 -25 -47 -17 -23 -45 -62 -61 -88 -33
-53 -31 -52 -59 -38 -26 14 -49 1 -68 -41 -10 -21 -31 -41 -53 -52 -31 -15
-38 -24 -38 -47 0 -27 -3 -29 -47 -35 -87 -12 -97 -18 -107 -62 -8 -37 -16
-44 -75 -76 -100 -53 -210 -89 -248 -82 -18 3 -52 0 -75 -8 -66 -21 -420 1
-463 28 l-30 19 20 -23 20 -24 -60 7 c-109 12 -213 45 -217 69 -2 14 -17 25
-53 38 -27 10 -42 18 -32 18 22 1 22 15 0 52 -16 28 -29 33 -101 42 -30 4 -92
96 -92 137 0 23 -4 30 -20 30 -17 0 -20 7 -20 39 0 22 -4 42 -9 45 -4 3 -6 16
-4 29 3 14 -4 58 -16 98 -54 196 -67 365 -47 607 20 234 21 521 3 547 -12 15
-24 17 -87 13 -78 -6 -137 6 -292 59 -49 16 -75 30 -72 38 3 7 -4 15 -15 18
-12 3 -21 13 -21 25 0 16 -9 21 -47 27 -26 4 -77 18 -114 31 -36 13 -74 24
-83 24 -9 0 -16 8 -16 20 0 13 -7 20 -20 20 -13 0 -20 7 -20 20 0 14 -9 21
-37 25 -51 9 -101 35 -106 56 -5 19 -66 61 -78 54 -18 -12 -68 66 -75 115 -5
39 -11 50 -25 50 -23 0 -75 91 -89 157 -16 71 4 458 26 533 9 30 16 68 16 85
-1 39 62 172 131 276 31 47 62 99 68 117 7 21 18 32 30 32 12 0 19 7 19 20 0
13 7 20 20 20 13 0 20 7 20 20 0 13 7 20 19 20 12 0 21 8 23 22 2 14 15 25 43
35 24 8 56 32 82 62 35 41 50 50 88 55 45 7 110 50 100 66 -9 15 17 24 61 21
46 -2 116 17 208 56 32 14 102 33 155 42 85 15 96 20 99 39 l3 22 378 0 c249
0 389 -4 410 -11z m3367 -723 c16 -8 74 -20 129 -26 55 -6 116 -19 135 -28 28
-13 65 -17 177 -17 140 0 143 0 143 -22 0 -19 7 -22 58 -28 31 -3 87 -10 124
-16 37 -5 96 -9 131 -9 67 0 252 -34 271 -49 6 -5 37 -14 69 -20 32 -6 86 -24
120 -40 68 -32 146 -51 207 -51 22 0 40 -4 40 -8 0 -4 30 -16 67 -26 38 -10
87 -32 113 -51 76 -55 207 -95 315 -95 38 0 45 -3 45 -19 0 -11 9 -23 20 -26
11 -3 20 -12 20 -20 0 -20 96 -62 173 -76 66 -12 67 -13 67 -45 0 -30 3 -33
40 -39 34 -6 40 -11 40 -31 0 -20 5 -24 30 -24 23 0 30 -5 30 -19 0 -19 69
-55 130 -67 26 -6 30 -11 30 -39 0 -30 3 -33 41 -39 53 -9 54 -7 23 40 -23 34
-24 36 -5 19 13 -11 30 -32 38 -46 9 -15 27 -32 40 -38 17 -8 23 -19 23 -41 0
-23 4 -30 20 -30 13 0 20 -7 20 -20 0 -13 7 -20 19 -20 25 0 111 -145 118
-200 4 -30 10 -40 23 -40 21 0 83 -138 82 -182 0 -14 8 -54 18 -87 10 -34 14
-61 9 -61 -6 0 -9 -142 -9 -368 2 -418 -5 -477 -58 -477 -11 0 -26 -19 -41
-52 -16 -36 -30 -53 -43 -53 -11 0 -20 -10 -23 -27 -11 -54 -23 -88 -24 -70
-1 16 -3 17 -15 4 -8 -8 -42 -17 -75 -21 -51 -6 -61 -10 -61 -26 0 -17 -7 -20
-40 -20 -32 0 -40 -4 -40 -18 0 -14 -15 -20 -82 -29 -121 -18 -158 -30 -158
-53 0 -19 -8 -20 -120 -20 -113 0 -120 -1 -120 -20 0 -19 -7 -20 -220 -20
-213 0 -220 1 -220 20 0 19 -7 20 -150 20 l-150 0 -21 -42 c-34 -67 -49 -117
-64 -214 -19 -128 -43 -204 -63 -204 -14 0 -13 -2 2 -13 27 -19 13 -147 -15
-147 -12 0 -19 -7 -19 -20 0 -13 -7 -20 -19 -20 -17 0 -18 4 -10 38 26 111
-26 16 -56 -103 -31 -120 -31 -129 -5 -122 17 4 18 2 9 -14 -5 -10 -14 -19
-19 -19 -5 0 -16 -12 -24 -27 -18 -33 -19 -30 -7 15 9 31 9 32 -20 32 -22 0
-29 -5 -29 -20 0 -13 -7 -20 -20 -20 -28 0 -30 -80 -2 -80 30 -1 -114 -128
-159 -140 -31 -9 -39 -16 -39 -34 0 -20 -9 -25 -80 -41 -72 -16 -80 -21 -80
-42 0 -22 -3 -23 -70 -23 -63 0 -70 -2 -70 -20 0 -19 -7 -20 -150 -20 -143 0
-150 1 -150 20 0 17 -7 20 -40 20 -35 0 -40 3 -40 24 0 20 -6 24 -45 29 -25 4
-78 25 -119 47 -40 22 -105 51 -144 64 -77 27 -171 74 -212 107 -15 12 -2 7
31 -10 67 -37 69 -37 69 -7 0 19 -9 27 -47 41 -27 10 -61 31 -78 47 -55 52
-70 65 -92 77 -13 6 -23 18 -23 26 0 15 -54 58 -63 49 -23 -24 -116 178 -117
254 0 45 -3 52 -20 52 -18 0 -20 7 -20 71 0 69 -1 70 -30 80 -32 12 -54 64
-82 201 -19 90 -13 956 6 972 9 7 17 67 25 181 18 247 51 467 72 481 5 3 9 54
9 114 0 98 2 113 23 144 18 26 26 55 31 116 4 46 11 90 16 100 5 10 14 64 19
121 13 133 57 458 78 572 17 95 56 147 110 147 16 0 23 6 23 20 0 19 7 20 133
20 95 0 142 -4 163 -14z"/>
</g>
</svg>
